<?xml version="1.0" encoding="UTF-8"?>
<svg version="1.1" xmlns="http://www.w3.org/2000/svg" width="1024" height="1024">
<path d="M0 0 C337.92 0 675.84 0 1024 0 C1024 337.92 1024 675.84 1024 1024 C686.08 1024 348.16 1024 0 1024 C0 686.08 0 348.16 0 0 Z " fill="#0D0D0D" transform="translate(0,0)"/>
<path d="M0 0 C34.1058913 31.70595021 50.66712819 73.48874702 58.75 118.5 C59.02118652 119.93327637 59.02118652 119.93327637 59.29785156 121.39550781 C61.99314765 136.07227915 62.03068922 150.81447588 62.0625 165.6875 C62.06814972 167.14348099 62.06814972 167.14348099 62.07391357 168.62887573 C62.10885423 186.40897353 60.98765292 204.025706 57.9375 221.5625 C57.76573242 222.55942871 57.59396484 223.55635742 57.41699219 224.58349609 C48.04071159 277.29362451 22.78102679 323.33293236 -21.484375 354.3359375 C-29.98340921 360.10640853 -39.06760472 364.91741916 -48.25 369.5 C-48.25364563 370.28847321 -48.25729126 371.07694641 -48.26104736 371.88931274 C-48.29897518 379.3340875 -48.35588144 386.77836447 -48.43390274 394.22281837 C-48.47334698 398.049767 -48.50555011 401.87648659 -48.52099609 405.70361328 C-48.5361833 409.39974178 -48.57066404 413.09524051 -48.61830902 416.7910881 C-48.63310181 418.19836313 -48.64103981 419.60572808 -48.64188385 421.0130806 C-48.64426121 422.9901103 -48.67366946 424.96705075 -48.70410156 426.94384766 C-48.71298401 428.06747711 -48.72186646 429.19110657 -48.73101807 430.3487854 C-49.51806614 435.12767503 -51.81500222 438.30416852 -55.5 441.375 C-59.21695609 442.89557295 -62.35131813 443.36946479 -66.25 442.5 C-72.49863742 439.09025692 -78.11350505 434.40042297 -83.6875 430 C-85.27211967 428.75909448 -86.85675554 427.51820964 -88.44140625 426.27734375 C-90.04428103 425.01824215 -91.64714577 423.75912776 -93.25 422.5 C-96.20547437 420.18382357 -99.16388226 417.87145705 -102.125 415.5625 C-102.85581787 414.99257324 -103.58663574 414.42264648 -104.33959961 413.83544922 C-110.88799735 408.74675844 -117.51665859 403.76783198 -124.17529297 398.82446289 C-125.3414917 397.95615845 -125.3414917 397.95615845 -126.53125 397.0703125 C-127.31201904 396.49740479 -128.09278809 395.92449707 -128.8972168 395.33422852 C-131.25 393.5 -131.25 393.5 -133.55004883 391.33569336 C-140.58644538 384.89223126 -146.6004673 384.22063849 -155.9375 383.8125 C-158.71010352 383.62733332 -161.47992498 383.41088758 -164.25 383.19140625 C-164.93531296 383.1395517 -165.62062592 383.08769714 -166.32670593 383.03427124 C-189.18108426 381.21207358 -211.22548399 373.40141807 -231.25 362.5 C-231.86069336 362.17386719 -232.47138672 361.84773438 -233.10058594 361.51171875 C-266.94125875 343.37181725 -293.20377518 314.15520229 -309.25 279.5 C-310.03310547 277.84291016 -310.03310547 277.84291016 -310.83203125 276.15234375 C-338.17073804 215.63209309 -338.83058507 138.43304796 -316.50390625 76.3125 C-297.84242659 26.94719732 -262.63813533 -11.25945686 -214.6953125 -33.14453125 C-143.97567259 -64.34733639 -57.26126116 -51.88812173 0 0 Z " fill="#0D0D0D" transform="translate(414.25,307.5)"/>
<path d="M0 0 C34.1058913 31.70595021 50.66712819 73.48874702 58.75 118.5 C59.02118652 119.93327637 59.02118652 119.93327637 59.29785156 121.39550781 C61.99314765 136.07227915 62.03068922 150.81447588 62.0625 165.6875 C62.06814972 167.14348099 62.06814972 167.14348099 62.07391357 168.62887573 C62.10885423 186.40897353 60.98765292 204.025706 57.9375 221.5625 C57.76573242 222.55942871 57.59396484 223.55635742 57.41699219 224.58349609 C48.04071159 277.29362451 22.78102679 323.33293236 -21.484375 354.3359375 C-29.98340921 360.10640853 -39.06760472 364.91741916 -48.25 369.5 C-48.25364563 370.28847321 -48.25729126 371.07694641 -48.26104736 371.88931274 C-48.29897518 379.3340875 -48.35588144 386.77836447 -48.43390274 394.22281837 C-48.47334698 398.049767 -48.50555011 401.87648659 -48.52099609 405.70361328 C-48.5361833 409.39974178 -48.57066404 413.09524051 -48.61830902 416.7910881 C-48.63310181 418.19836313 -48.64103981 419.60572808 -48.64188385 421.0130806 C-48.64426121 422.9901103 -48.67366946 424.96705075 -48.70410156 426.94384766 C-48.71298401 428.06747711 -48.72186646 429.19110657 -48.73101807 430.3487854 C-49.51806614 435.12767503 -51.81500222 438.30416852 -55.5 441.375 C-59.21695609 442.89557295 -62.35131813 443.36946479 -66.25 442.5 C-72.49863742 439.09025692 -78.11350505 434.40042297 -83.6875 430 C-85.27211967 428.75909448 -86.85675554 427.51820964 -88.44140625 426.27734375 C-90.04428103 425.01824215 -91.64714577 423.75912776 -93.25 422.5 C-96.20547437 420.18382357 -99.16388226 417.87145705 -102.125 415.5625 C-102.85581787 414.99257324 -103.58663574 414.42264648 -104.33959961 413.83544922 C-110.88799735 408.74675844 -117.51665859 403.76783198 -124.17529297 398.82446289 C-125.3414917 397.95615845 -125.3414917 397.95615845 -126.53125 397.0703125 C-127.31201904 396.49740479 -128.09278809 395.92449707 -128.8972168 395.33422852 C-131.25 393.5 -131.25 393.5 -133.55004883 391.33569336 C-140.58644538 384.89223126 -146.6004673 384.22063849 -155.9375 383.8125 C-158.71010352 383.62733332 -161.47992498 383.41088758 -164.25 383.19140625 C-164.93531296 383.1395517 -165.62062592 383.08769714 -166.32670593 383.03427124 C-189.18108426 381.21207358 -211.22548399 373.40141807 -231.25 362.5 C-231.86069336 362.17386719 -232.47138672 361.84773438 -233.10058594 361.51171875 C-266.94125875 343.37181725 -293.20377518 314.15520229 -309.25 279.5 C-310.03310547 277.84291016 -310.03310547 277.84291016 -310.83203125 276.15234375 C-338.17073804 215.63209309 -338.83058507 138.43304796 -316.50390625 76.3125 C-297.84242659 26.94719732 -262.63813533 -11.25945686 -214.6953125 -33.14453125 C-143.97567259 -64.34733639 -57.26126116 -51.88812173 0 0 Z M-181.875 -17.75 C-182.74415039 -17.49323486 -183.61330078 -17.23646973 -184.50878906 -16.97192383 C-215.24058977 -7.63159135 -243.68246681 9.57268227 -264.25 34.5 C-264.88470215 35.26111084 -264.88470215 35.26111084 -265.53222656 36.03759766 C-295.45762496 72.4863342 -305.46832805 121.44146241 -305.5 167.5 C-305.50067474 168.38405518 -305.50134949 169.26811035 -305.50204468 170.17895508 C-305.45016146 213.17123397 -298.02611449 260.37667573 -271.25 295.5 C-270.61320312 296.3559375 -269.97640625 297.211875 -269.3203125 298.09375 C-246.21805981 327.7343761 -214.67965856 346.92768082 -178.25 355.5 C-177.23365479 355.74806396 -176.21730957 355.99612793 -175.17016602 356.25170898 C-165.36683624 358.52055323 -155.68906569 359.4061408 -145.6809082 360.08129883 C-134.52099916 360.85470707 -128.36827179 362.54940047 -119.8125 370 C-114.51238233 374.53663517 -109.00887108 378.73171407 -103.40258789 382.88110352 C-97.97533769 386.91416207 -92.68828202 391.09974793 -87.47338867 395.40380859 C-84.4369888 397.87886807 -81.36812613 400.11045825 -78.03125 402.16821289 C-76.96487305 402.82787804 -76.96487305 402.82787804 -75.87695312 403.50086975 C-75.07161133 403.99543922 -75.07161133 403.99543922 -74.25 404.5 C-74.23598145 402.55565063 -74.23598145 402.55565063 -74.22167969 400.57202148 C-74.18167712 395.74290144 -74.1158894 390.91441158 -74.04248047 386.08569336 C-74.01433038 383.99951296 -73.9930863 381.91322708 -73.97900391 379.8269043 C-73.95749198 376.82025385 -73.91079876 373.81486359 -73.859375 370.80859375 C-73.85814636 369.88227646 -73.85691772 368.95595917 -73.85565186 368.00157166 C-73.70220357 361.15051325 -72.40485339 356.67093663 -67.43017578 351.67089844 C-62.52978035 348.21527698 -57.49566047 345.40609389 -52.125 342.75 C-43.54363195 338.36331818 -35.86201792 333.39194895 -28.25 327.5 C-27.31027344 326.78328125 -26.37054688 326.0665625 -25.40234375 325.328125 C11.36517846 296.33733051 28.72557046 251.98690532 34.75 206.5 C34.86569336 205.65856445 34.98138672 204.81712891 35.10058594 203.95019531 C40.85460032 160.15480392 36.75732203 113.40093322 19.75 72.5 C19.45399902 71.78295898 19.15799805 71.06591797 18.85302734 70.32714844 C11.44393022 52.72303761 0.60969676 37.5292031 -12.25 23.5 C-12.88808594 22.77941406 -13.52617187 22.05882812 -14.18359375 21.31640625 C-33.16810963 0.97887365 -59.23059204 -11.51974309 -85.625 -18.875 C-86.47924561 -19.11379883 -87.33349121 -19.35259766 -88.21362305 -19.59863281 C-101.52154144 -23.10679556 -114.52346871 -23.8487816 -128.20678711 -23.81567383 C-130.91626704 -23.81252468 -133.62463921 -23.83602551 -136.33398438 -23.86132812 C-151.84642216 -23.91856894 -166.97768937 -22.24423848 -181.875 -17.75 Z " fill="#FAFAFA" transform="translate(414.25,307.5)"/>
<path d="M0 0 C1.05703125 0.38542969 2.1140625 0.77085937 3.203125 1.16796875 C21.02786305 8.08737083 36.40824062 20.69813745 45 38 C52.62606301 56.8082147 55.1781433 82.51209009 47.52734375 101.8828125 C47.02332031 102.91148437 46.51929688 103.94015625 46 105 C45.29037109 106.45019531 45.29037109 106.45019531 44.56640625 107.9296875 C38.42897018 118.73524827 28.56253165 127.20621803 18.8125 134.6875 C5.3901754 144.99889724 -6.61785103 157.46821939 -9 175 C-9.31961785 179.41957453 -9.52420853 183.84201948 -9.62280273 188.27197266 C-9.64544189 189.11163574 -9.66808105 189.95129883 -9.69140625 190.81640625 C-9.70989624 191.95251343 -9.70989624 191.95251343 -9.72875977 193.11157227 C-10 195 -10 195 -12 197 C-13.8662262 197.24723816 -13.8662262 197.24723816 -16.15844727 197.24291992 C-17.01596085 197.24599655 -17.87347443 197.24907318 -18.75697327 197.25224304 C-19.68408615 197.24505753 -20.61119904 197.23787201 -21.56640625 197.23046875 C-22.51563461 197.23001053 -23.46486298 197.22955231 -24.44285583 197.2290802 C-26.45109303 197.22605638 -28.45932784 197.21816624 -30.4675293 197.20581055 C-33.55330649 197.18755439 -36.63878383 197.18530082 -39.72460938 197.18554688 C-41.67187761 197.18063183 -43.6191438 197.17480357 -45.56640625 197.16796875 C-46.96011192 197.16629951 -46.96011192 197.16629951 -48.38197327 197.16459656 C-49.23633469 197.15821671 -50.09069611 197.15183685 -50.97094727 197.14526367 C-51.72658463 197.14145187 -52.48222198 197.13764008 -53.26075745 197.13371277 C-55 197 -55 197 -56 196 C-56.27076321 191.69691909 -56.27165022 187.38725012 -56.29516602 183.07666016 C-56.30652546 181.63385079 -56.32671239 180.1910778 -56.35668945 178.74853516 C-56.63548312 165.32594403 -54.7004993 152.90941301 -48.4375 140.8125 C-48.10016846 140.15233887 -47.76283691 139.49217773 -47.4152832 138.81201172 C-40.32464109 125.64344888 -27.93086932 115.60079006 -16.3125 106.5625 C-7.45543339 99.3756231 -0.09875294 89.61834337 1.375 78.05859375 C1.72958994 69.38222119 -0.35894949 62.12911203 -5.625 55.1875 C-11.33369803 49.02734881 -19.68103641 45.9478091 -27.9375 45.625 C-37.16118067 45.73598012 -46.53571061 49.27213856 -53.22265625 55.71875 C-57.9433553 61.77784505 -60.93652366 69.07052797 -63.59643555 76.22485352 C-63.86095016 76.93489029 -64.12546478 77.64492706 -64.397995 78.3764801 C-64.59665665 78.91224167 -64.7953183 79.44800323 -65 80 C-71.53278786 80.02527002 -78.06556321 80.04283292 -84.59838867 80.05493164 C-86.82267732 80.05997317 -89.04696263 80.06680623 -91.27124023 80.07543945 C-94.46078309 80.08751298 -97.65028229 80.09322996 -100.83984375 80.09765625 C-102.34139259 80.10539818 -102.34139259 80.10539818 -103.87327576 80.11329651 C-104.79415482 80.11337204 -105.71503387 80.11344757 -106.66381836 80.11352539 C-107.47878281 80.115746 -108.29374725 80.11796661 -109.13340759 80.12025452 C-111 80 -111 80 -112 79 C-113.70261749 60.43867821 -107.39908762 42.20276385 -96.0625 27.5625 C-94.73069974 26.02204245 -93.37672359 24.50044445 -92 23 C-91.33613281 22.24460937 -90.67226562 21.48921875 -89.98828125 20.7109375 C-81.27976863 11.34244518 -69.89199992 4.55580842 -58 0 C-57.08476562 -0.391875 -56.16953125 -0.78375 -55.2265625 -1.1875 C-38.66372054 -7.19518071 -16.32654416 -6.36072216 0 0 Z " fill="#FBFBFB" transform="translate(311,343)"/>
<path d="M0 0 C2.22498961 1.47667472 4.04724571 3.09284261 5.7421875 5.15625 C6.0721875 3.17625 6.4021875 1.19625 6.7421875 -0.84375 C12.6821875 -0.84375 18.6221875 -0.84375 24.7421875 -0.84375 C24.7421875 33.47625 24.7421875 67.79625 24.7421875 103.15625 C18.8021875 103.15625 12.8621875 103.15625 6.7421875 103.15625 C6.4121875 91.27625 6.0821875 79.39625 5.7421875 67.15625 C3.4321875 69.13625 1.1221875 71.11625 -1.2578125 73.15625 C-8.55477838 76.97904267 -15.88941707 77.08962107 -23.6328125 74.71875 C-33.79852013 70.72306214 -40.68932768 62.78642486 -45.21875 53.1015625 C-49.36127554 42.11816909 -48.82326676 27.46719652 -44.515625 16.66796875 C-40.31508085 8.27992562 -33.42907819 1.05835085 -24.49609375 -2.37109375 C-16.29523478 -4.10286327 -7.48611057 -3.95492634 0 0 Z " fill="#FBFBFB" transform="translate(542.2578125,347.84375)"/>
<path d="M0 0 C2.38094532 1.86202134 4.0380646 3.64567752 6 6 C6 6.99 6 7.98 6 9 C6.66 9 7.32 9 8 9 C8.38091797 8.10667969 8.38091797 8.10667969 8.76953125 7.1953125 C11.45684327 2.4008066 16.45943074 -0.3837723 21.4375 -2.375 C30.69333923 -3.99883144 38.31623612 -3.00467872 46.3125 2.125 C51.91690252 8.12040735 54.13174194 15.5065806 54.11352539 23.59472656 C54.11341209 25.27601654 54.11341209 25.27601654 54.11329651 26.99127197 C54.10813522 28.19555847 54.10297394 29.39984497 54.09765625 30.640625 C54.0962413 31.87794373 54.09482635 33.11526245 54.09336853 34.39007568 C54.0887211 37.67144941 54.07974347 40.95277373 54.06866455 44.23413086 C54.0584152 47.58577011 54.05394859 50.93741148 54.04882812 54.2890625 C54.03780024 60.8593968 54.02053617 67.42968881 54 74 C48.06 74 42.12 74 36 74 C35.98541748 72.55753906 35.97083496 71.11507812 35.95581055 69.62890625 C35.89763828 64.25382263 35.82040617 58.87914963 35.73754883 53.50439453 C35.70438847 51.18252245 35.67632913 48.86057149 35.65356445 46.53857422 C35.61985528 43.19204232 35.56752991 39.84622756 35.51171875 36.5 C35.50532883 35.4694751 35.4989389 34.4389502 35.49235535 33.37719727 C35.36883945 27.25940546 34.6899325 22.53457281 32 17 C27.97666329 14.31777553 24.72742591 14.20099844 20 15 C15.70750564 18.07939813 13.47250445 21.98763245 12 27 C11.55235015 30.65506762 11.51198424 34.2853138 11.48828125 37.96484375 C11.47033005 38.99815323 11.45237885 40.03146271 11.43388367 41.09608459 C11.37996774 44.37651565 11.34594459 47.65680275 11.3125 50.9375 C11.27931046 53.16994182 11.24481929 55.4023647 11.20898438 57.63476562 C11.12425179 63.08973959 11.05735113 68.54467223 11 74 C5.06 74 -0.88 74 -7 74 C-7.0093457 72.52724609 -7.01869141 71.05449219 -7.02832031 69.53710938 C-7.06832394 64.05015301 -7.13411257 58.5637512 -7.20751953 53.07714844 C-7.23566889 50.70677844 -7.25691329 48.33631562 -7.27099609 45.96582031 C-7.29250851 42.54964894 -7.33920394 39.13458645 -7.390625 35.71875 C-7.39185364 34.66635132 -7.39308228 33.61395264 -7.39434814 32.52966309 C-7.52406594 25.94837297 -8.48382978 21.61073489 -12 16 C-15.23863103 14.38068448 -18.49922957 14.43283608 -22 15 C-26.90133757 18.05177622 -29.43728484 21.50719335 -31 27 C-31.44441381 30.65553805 -31.4880149 34.28518134 -31.51171875 37.96484375 C-31.52966995 38.99815323 -31.54762115 40.03146271 -31.56611633 41.09608459 C-31.62003226 44.37651565 -31.65405541 47.65680275 -31.6875 50.9375 C-31.72068954 53.16994182 -31.75518071 55.4023647 -31.79101562 57.63476562 C-31.87574821 63.08973959 -31.94264887 68.54467223 -32 74 C-37.94 74 -43.88 74 -50 74 C-50 49.58 -50 25.16 -50 0 C-44.39 0 -38.78 0 -33 0 C-32.67 1.98 -32.34 3.96 -32 6 C-31.49210938 5.51789063 -30.98421875 5.03578125 -30.4609375 4.5390625 C-21.76258207 -3.4425745 -10.79518602 -6.22799193 0 0 Z " fill="#FAFAFA" transform="translate(551,490)"/>
<path d="M0 0 C5.5178039 3.54566106 9.05486046 8.19602537 12 14 C12.32097656 14.63164063 12.64195312 15.26328125 12.97265625 15.9140625 C16.33466044 24.01414702 15 30.62508227 15 40 C-1.5 40 -18 40 -35 40 C-31.65676505 50.62594294 -31.65676505 50.62594294 -24.171875 57.09765625 C-19.41007155 59.07603143 -13.63432085 58.80493137 -8.75 57.3125 C-3.83439205 55.00830877 0.01951654 51.6487765 4 48 C7.63 50.97 11.26 53.94 15 57 C10.13522226 65.1728266 3.30243841 70.52739106 -5.73046875 73.5859375 C-15.30121212 75.3320628 -26.60858435 75.28733446 -35 70 C-44.04666391 63.41531065 -50.20580972 55.1791856 -52 44 C-53.16349697 30.59823855 -52.45783496 18.57548448 -43.625 7.77734375 C-31.95333618 -4.98853855 -15.76877477 -8.37878791 0 0 Z " fill="#FAFAFA" transform="translate(835,630)"/>
<path d="M0 0 C9.52695162 5.68923966 13.763346 12.977538 17.2109375 23.3203125 C17.2109375 29.2603125 17.2109375 35.2003125 17.2109375 41.3203125 C1.0409375 41.6503125 -15.1290625 41.9803125 -31.7890625 42.3203125 C-28.40745534 53.06859127 -28.40745534 53.06859127 -20.8984375 58.390625 C-16.05319621 60.52612023 -10.51315833 59.79200802 -5.6015625 58.1328125 C-0.36317027 55.93101816 3.21913992 52.31211008 7.2109375 48.3203125 C10.5109375 51.6203125 13.8109375 54.9203125 17.2109375 58.3203125 C11.85344119 67.3209063 4.44325243 72.09448574 -5.2890625 75.5703125 C-15.21029815 77.69629157 -24.13974961 75.19826435 -33.1015625 70.6328125 C-43.11303282 62.01829153 -48.96502178 52.74370474 -50.01171875 39.50390625 C-50.35486487 28.06072903 -48.08634311 18.27371353 -40.7890625 9.3203125 C-40.01755859 8.36318359 -40.01755859 8.36318359 -39.23046875 7.38671875 C-29.32998506 -3.65338896 -13.38048562 -6.35684201 0 0 Z " fill="#FAFAF9" transform="translate(920.7890625,347.6796875)"/>
<path d="M0 0 C5.94 0 11.88 0 18 0 C18.01458252 1.381875 18.02916504 2.76375 18.04418945 4.1875 C18.10238092 9.33896104 18.17961265 14.4899945 18.26245117 19.64111328 C18.29560258 21.86597732 18.32366466 24.09092348 18.34643555 26.31591797 C18.38016145 29.5234663 18.43248712 32.73026866 18.48828125 35.9375 C18.49467117 36.92427734 18.5010611 37.91105469 18.50764465 38.92773438 C18.64719641 45.55749028 19.28563603 51.65924435 23.625 57 C27.41659134 58.59645951 30.9578619 58.63158408 35 58 C39.45228436 55.77385782 41.86733733 53.48981614 44 49 C44.8725221 46.09407522 45.14578092 43.44314194 45.20532227 40.41503906 C45.22526749 39.51440735 45.24521271 38.61377563 45.26576233 37.68585205 C45.28247482 36.72217712 45.29918732 35.7585022 45.31640625 34.765625 C45.33718735 33.77246277 45.35796844 32.77930054 45.37937927 31.75604248 C45.44469749 28.58743118 45.50367739 25.41873789 45.5625 22.25 C45.60570207 20.10025198 45.64931691 17.95051222 45.69335938 15.80078125 C45.80036077 10.53393792 45.90167822 5.26701222 46 0 C51.94 0 57.88 0 64 0 C64 24.42 64 48.84 64 74 C58.39 74 52.78 74 47 74 C46.505 70.535 46.505 70.535 46 67 C45.34 67.7425 44.68 68.485 44 69.25 C37.67036118 75.37039456 31.55780109 76.59163346 22.8684082 76.47021484 C15.38778887 76.14172457 10.89794397 74.18579223 5.6875 68.9375 C-0.42546873 60.91043467 -0.42615857 50.78528763 -0.29296875 41.11328125 C-0.28872391 39.93025925 -0.28447906 38.74723724 -0.28010559 37.52836609 C-0.2634564 33.78950197 -0.22582955 30.05119826 -0.1875 26.3125 C-0.1724354 23.76107555 -0.15875012 21.20964256 -0.14648438 18.65820312 C-0.11359793 12.43858967 -0.06191133 6.2193895 0 0 Z " fill="#FBFBFB" transform="translate(581,347)"/>
<path d="M0 0 C19.8 0 39.6 0 60 0 C60 15.57306231 60 15.57306231 55.93652344 19.90332031 C55.3593457 20.45084961 54.78216797 20.99837891 54.1875 21.5625 C52.98720431 22.8179817 51.78800399 24.07451143 50.58984375 25.33203125 C49.9851123 25.94385254 49.38038086 26.55567383 48.75732422 27.18603516 C46.10847415 29.92026078 43.68179924 32.82344182 41.25 35.75 C40.35695366 36.80874799 39.4637277 37.8673445 38.5703125 38.92578125 C35.36884055 42.74366321 32.21336224 46.59877306 29.0703125 50.46484375 C26.73351241 53.3263216 24.3651058 56.16187304 22 59 C41.305 59.495 41.305 59.495 61 60 C61 64.95 61 69.9 61 75 C40.87 75 20.74 75 0 75 C0 58.31634393 0 58.31634393 4.21533203 53.85693359 C4.80427246 53.30602051 5.39321289 52.75510742 6 52.1875 C7.207074 50.93488831 8.41280664 49.68098261 9.6171875 48.42578125 C10.20338867 47.83877441 10.78958984 47.25176758 11.39355469 46.64697266 C13.47444084 44.51358998 15.30452822 42.23247287 17.125 39.875 C20.6519283 35.38958588 24.32621286 31.04418513 28.05712891 26.72802734 C31.30624425 22.93480748 34.0689695 19.1034427 37 15 C24.79 15 12.58 15 0 15 C0 10.05 0 5.1 0 0 Z " fill="#F8F8F8" transform="translate(767,346)"/>
<path d="M0 0 C19.47 0 38.94 0 59 0 C59 14.45860733 59 14.45860733 55.13989258 18.61206055 C54.59872803 19.13195557 54.05756348 19.65185059 53.5 20.1875 C52.38803621 21.36336788 51.2773619 22.54045649 50.16796875 23.71875 C49.62317871 24.27691406 49.07838867 24.83507812 48.51708984 25.41015625 C46.46736206 27.55818124 44.63781698 29.8475399 42.8125 32.1875 C39.41261334 36.48839182 35.95206155 40.73518673 32.46875 44.96875 C28.95016342 49.28903985 25.48069833 53.64912709 22 58 C40.315 58.495 40.315 58.495 59 59 C59 63.95 59 68.9 59 74 C39.53 74 20.06 74 0 74 C0 57.31513046 0 57.31513046 3.50341797 53.5690918 C3.99729004 53.1131665 4.49116211 52.65724121 5 52.1875 C6.02460515 51.11569835 7.04803602 50.04277294 8.0703125 48.96875 C8.5746582 48.4634375 9.07900391 47.958125 9.59863281 47.4375 C11.51534502 45.47136734 13.19171012 43.35482603 14.875 41.1875 C19.04177862 35.92921596 23.27854623 30.72925631 27.52099609 25.53198242 C28.0567627 24.87431885 28.5925293 24.21665527 29.14453125 23.5390625 C29.62253174 22.95334473 30.10053223 22.36762695 30.59301758 21.76416016 C32.10106893 19.87327363 33.54883445 17.9348874 35 16 C23.45 15.67 11.9 15.34 0 15 C0 10.05 0 5.1 0 0 Z " fill="#FAFAFA" transform="translate(679,628)"/>
<path d="M0 0 C19.47 0 38.94 0 59 0 C59 12.79164943 58.81369736 14.83822703 51 23 C48.99543579 25.29093052 47.03236171 27.61672542 45.0625 29.9375 C44.0279157 31.13981531 42.99276418 32.34164278 41.95703125 33.54296875 C35.10072216 41.52912343 28.57462707 49.78171616 22 58 C40.315 58.495 40.315 58.495 59 59 C59 63.95 59 68.9 59 74 C39.2 74 19.4 74 -1 74 C-1 59 -1 59 3.4375 53.25 C5.28388169 51.49178822 7.13801958 49.74168394 9 48 C10.51117033 46.23524287 11.99122635 44.4433223 13.4375 42.625 C17.19538484 37.96921347 21.03329224 33.39244335 24.93139648 28.85400391 C28.7839715 24.33839383 32.34138215 19.70393724 36 15 C24.12 14.67 12.24 14.34 0 14 C0 9.38 0 4.76 0 0 Z " fill="#FBFBFB" transform="translate(693,347)"/>
<path d="M0 0 C19.47 0 38.94 0 59 0 C59 14.45887015 59 14.45887015 55.14086914 18.61083984 C54.59938232 19.1311377 54.05789551 19.65143555 53.5 20.1875 C52.3828905 21.36993849 51.26700622 22.5535357 50.15234375 23.73828125 C49.60690918 24.29725098 49.06147461 24.8562207 48.49951172 25.43212891 C46.54531049 27.47541778 44.79919093 29.64531293 43.0625 31.875 C38.94595577 37.08351175 34.75778554 42.23187004 30.56665039 47.38037109 C30.03418701 48.03473145 29.50172363 48.6890918 28.953125 49.36328125 C28.24397949 50.23400269 28.24397949 50.23400269 27.52050781 51.12231445 C25.67047919 53.40692752 23.83644012 55.70444985 22 58 C40.315 58.495 40.315 58.495 59 59 C59 63.95 59 68.9 59 74 C39.86 74 20.72 74 1 74 C1 58 1 58 3.01953125 54.0859375 C3.94121094 53.19132813 4.86289062 52.29671875 5.8125 51.375 C6.83376683 50.32194791 7.8519034 49.26585268 8.8671875 48.20703125 C9.39022461 47.68318848 9.91326172 47.1593457 10.45214844 46.61962891 C13.00861535 43.94461289 15.20146005 41.00549614 17.4375 38.0625 C21.84643898 32.36190786 26.46376156 26.86849685 31.20483398 21.44165039 C33.88806775 18.42061226 33.88806775 18.42061226 36 15 C24.12 15 12.24 15 0 15 C0 10.05 0 5.1 0 0 Z " fill="#FBFBFB" transform="translate(608,628)"/>
<path d="M0 0 C6.48362554 5.51393374 11.69395221 11.5990466 12.58984375 20.42578125 C12.82132549 28.8931398 11.10038067 37.30671606 5.05859375 43.6953125 C-2.85096003 50.10259405 -10.9208746 52.2246216 -20.875 51.5859375 C-29.7724787 50.38855424 -35.40602888 46.27072525 -41.01953125 39.3984375 C-45.45329703 33.08271359 -46.66813724 26.72587308 -45.6484375 19.078125 C-43.57637691 10.93788697 -39.32161312 4.30045193 -32.37109375 -0.4921875 C-22.12216052 -6.46078422 -9.87492379 -7.1658739 0 0 Z " fill="#F9F9F9" transform="translate(294.6484375,567.921875)"/>
<path d="M0 0 C5.94 0 11.88 0 18 0 C18 7.92 18 15.84 18 24 C23.61 24 29.22 24 35 24 C35 28.95 35 33.9 35 39 C29.39 39 23.78 39 18 39 C18.09348657 44.7843867 18.19956981 50.56835245 18.31738281 56.35229492 C18.35568847 58.32032931 18.39053855 60.2884341 18.421875 62.2565918 C18.46749111 65.08407772 18.52549098 67.91107834 18.5859375 70.73828125 C18.59748871 71.61962234 18.60903992 72.50096344 18.62094116 73.40901184 C18.64081085 74.22963608 18.66068054 75.05026031 18.68115234 75.89575195 C18.69447601 76.61745071 18.70779968 77.33914948 18.7215271 78.0827179 C18.90726155 80.32601629 18.90726155 80.32601629 21 83 C24.14930893 84.04976964 26.38814456 84.10131595 29.6875 84.0625 C31.440625 84.041875 33.19375 84.02125 35 84 C35.66 88.62 36.32 93.24 37 98 C29.68970745 101.65514627 21.21772107 102.16031474 13.2421875 100.38671875 C7.57162908 98.4654997 4.68438245 96.17638169 1.83984375 90.90234375 C0.36584486 87.56356487 -0.12320649 84.95602045 -0.11352539 81.3449707 C-0.11344986 80.40422195 -0.11337433 79.46347321 -0.11329651 78.49421692 C-0.10813522 77.48163315 -0.10297394 76.46904938 -0.09765625 75.42578125 C-0.0962413 74.38681198 -0.09482635 73.34784271 -0.09336853 72.27738953 C-0.08776656 68.95573052 -0.07521372 65.63413867 -0.0625 62.3125 C-0.05748525 60.06184993 -0.0529223 57.81119881 -0.04882812 55.56054688 C-0.03779648 50.04033867 -0.02053051 44.52018072 0 39 C-4.29 39 -8.58 39 -13 39 C-13 34.05 -13 29.1 -13 24 C-8.71 24 -4.42 24 0 24 C0 16.08 0 8.16 0 0 Z " fill="#F6F6F6" transform="translate(661,466)"/>
<path d="M0 0 C6.6 0 13.2 0 20 0 C25.7050246 17.65458316 31.39518329 35.31327707 37 53 C42.96617833 35.42156538 48.55547796 17.74510887 54 0 C60.27 0 66.54 0 73 0 C67.39023893 16.98607778 61.63003763 33.91911936 55.83740234 50.84350586 C55.39251717 52.14372681 55.39251717 52.14372681 54.93864441 53.47021484 C54.3827878 55.09444529 53.82659222 56.71855978 53.26997375 58.3425293 C51.48629122 63.55329203 49.74178902 68.77463295 48 74 C41.07 74 34.14 74 27 74 C22.28671174 63.17388387 18.46499032 52.09638862 14.625 40.9375 C13.34882178 37.23742447 12.07018455 33.53821042 10.7890625 29.83984375 C10.47769348 28.9406723 10.16632446 28.04150085 9.84552002 27.11508179 C6.68619744 18.03036652 3.35298911 9.01494877 0 0 Z " fill="#FAFAFA" transform="translate(494,628)"/>
<path d="M0 0 C6.27 0 12.54 0 19 0 C19 36.3 19 72.6 19 110 C12.73 110 6.46 110 0 110 C0 73.7 0 37.4 0 0 Z " fill="#FCFCFC" transform="translate(839,311)"/>
<path d="M0 0 C5.94 0 11.88 0 18 0 C18 36.3 18 72.6 18 110 C12.06 110 6.12 110 0 110 C0 73.7 0 37.4 0 0 Z " fill="#FCFCFC" transform="translate(751,592)"/>
<path d="M0 0 C5.18985387 3.35496619 9.67941313 7.74582373 11.546875 13.76171875 C13.29195405 22.38180749 12.70402493 31.44629041 8 39 C3.784821 43.60008398 0.1658186 46.14836767 -6.125 46.4375 C-11.35825865 46.36891208 -14.42790835 45.34926219 -18.33984375 41.87109375 C-24.31155812 35.14062038 -24.76231831 27.50259349 -24.3828125 18.82421875 C-23.73138169 12.31655787 -21.97247973 7.47767557 -17.0625 3.0625 C-11.30167025 -0.81724248 -6.77154926 -2.12948887 0 0 Z " fill="#0D0D0D" transform="translate(538,361)"/>
<path d="M0 0 C5.94 0 11.88 0 18 0 C18 24.42 18 48.84 18 74 C12.06 74 6.12 74 0 74 C0 49.58 0 25.16 0 0 Z " fill="#F9F9F9" transform="translate(576,628)"/>
<path d="M0 0 C5.94 0 11.88 0 18 0 C18 24.42 18 48.84 18 74 C12.06 74 6.12 74 0 74 C0 49.58 0 25.16 0 0 Z " fill="#FBFBFB" transform="translate(619,490)"/>
<path d="M0 0 C5.94 0 11.88 0 18 0 C18 24.42 18 48.84 18 74 C12.06 74 6.12 74 0 74 C0 49.58 0 25.16 0 0 Z " fill="#FBFBFB" transform="translate(660,347)"/>
<path d="M0 0 C3.00685874 1.61907778 5.2581079 3.05577368 7.375 5.75 C8.33387734 9.20195844 8.5738278 12.48005629 8 16 C5.82979616 19.56533488 3.83425846 21.44386585 0 23 C-4.95611122 23.42556948 -8.19650728 22.65591243 -12.0625 19.5 C-14.36471571 16.18257111 -14.65975609 13.08807472 -14.42578125 9.1171875 C-13.6169653 5.09536874 -11.38128921 2.96690245 -8.125 0.6875 C-5.18445523 -0.26385272 -3.08192861 -0.36983143 0 0 Z " fill="#F9F9F9" transform="translate(631,455)"/>
<path d="M0 0 C3.27365512 2.09849687 6.24483773 4.48967546 8 8 C8.12775695 12.64487751 7.59584636 16.10623046 5 20 C1.06236186 22.62509209 -2.26872887 23.59036951 -7 23 C-10.12656275 21.34246674 -12.39678118 19.20643764 -14 16 C-14.53118173 12.20584481 -14.85089348 8.53668822 -12.953125 5.109375 C-8.95700795 0.2670214 -6.21600445 -0.71331199 0 0 Z " fill="#F6F6F6" transform="translate(588,593)"/>
<path d="M0 0 C3.27634314 2.67456583 4.63024101 4.12149228 5.4375 8.22265625 C5.65082201 12.21577755 5.32202438 14.45945908 3.25 17.9375 C-0.44259464 21.32237842 -1.78535494 22.01928008 -6.9375 21.9375 C-11.2343295 21.28014922 -13.26915775 19.39286462 -16 16 C-17.53214888 12.93570224 -17.22938548 10.3834358 -17 7 C-15.68407862 3.95260312 -14.35508251 2.3133081 -11.875 0.125 C-7.69813134 -1.50942687 -4.26232539 -1.36425243 0 0 Z " fill="#F8F8F8" transform="translate(675,314)"/>
<path d="M0 0 C3.35326619 2.28631786 4.88067274 4.27481417 6.75 7.875 C7.08 10.185 7.41 12.495 7.75 14.875 C-2.81 14.875 -13.37 14.875 -24.25 14.875 C-20.8671875 4.7265625 -20.8671875 4.7265625 -17.75 2.375 C-17.1621875 1.9109375 -16.574375 1.446875 -15.96875 0.96875 C-10.99738174 -2.19484798 -5.34365226 -1.84972578 0 0 Z " fill="#0E0E0E" transform="translate(913.25,360.125)"/>
<path d="M0 0 C3.02142737 2.60941455 4.90682986 4.83044204 6.75 8.375 C6.75 10.355 6.75 12.335 6.75 14.375 C-3.48 14.375 -13.71 14.375 -24.25 14.375 C-23.26839661 8.48537968 -22.47204933 4.68973167 -17.48828125 1.109375 C-11.53838163 -2.21041182 -6.31130519 -3.15565259 0 0 Z " fill="#0E0E0E" transform="translate(825.25,641.625)"/>
<path d="M0 0 C0 6.00925213 -0.60027049 12.00405742 -1 18 C19.13 18 39.26 18 60 18 C60 13.05 60 8.1 60 3 C46.8 3 33.6 3 20 3 C24.5268483 -0.39513623 26.90054589 -0.34821132 32.23046875 -0.109375 C33.41700798 -0.07327118 33.41700798 -0.07327118 34.6275177 -0.03643799 C36.29448957 0.01710727 37.9612372 0.07808289 39.62768555 0.14599609 C42.18834419 0.2500343 44.74897749 0.33207908 47.31054688 0.41015625 C48.92973105 0.46487187 50.5488742 0.52081851 52.16796875 0.578125 C52.9377153 0.60424866 53.70746185 0.63037231 54.50053406 0.6572876 C59.88259139 0.88259139 59.88259139 0.88259139 61 2 C61 7.61 61 13.22 61 19 C40.21 19 19.42 19 -2 19 C-2 2 -2 2 0 0 Z " fill="#010101" transform="translate(768,403)"/>
<path d="M0 0 C1.16090149 0.02009628 2.32180298 0.04019257 3.5178833 0.06089783 C5.38993439 0.10145042 5.38993439 0.10145042 7.29980469 0.14282227 C8.5815155 0.16643326 9.86322632 0.19004425 11.18377686 0.21437073 C14.58360046 0.27706073 17.98326423 0.34616959 21.38293457 0.41662598 C24.85515086 0.48744612 28.32748005 0.55218108 31.79980469 0.61743164 C38.60722108 0.74624938 45.41447014 0.8824126 52.22167969 1.02172852 C52.22167969 5.97172852 52.22167969 10.92172852 52.22167969 16.02172852 C51.89167969 16.02172852 51.56167969 16.02172852 51.22167969 16.02172852 C51.22167969 11.73172852 51.22167969 7.44172852 51.22167969 3.02172852 C31.75167969 3.02172852 12.28167969 3.02172852 -7.77832031 3.02172852 C-7.77832031 8.30172852 -7.77832031 13.58172852 -7.77832031 19.02172852 C-8.43832031 18.69172852 -9.09832031 18.36172852 -9.77832031 18.02172852 C-9.77832031 12.41172852 -9.77832031 6.80172852 -9.77832031 1.02172852 C-6.17330746 0.1204753 -3.66187413 -0.07164536 0 0 Z " fill="#2E2E2E" transform="translate(700.7783203125,343.978271484375)"/>
<path d="M0 0 C1.18613892 0.00785522 1.18613892 0.00785522 2.39624023 0.01586914 C3.67724609 0.02070313 3.67724609 0.02070313 4.98413086 0.02563477 C5.88196289 0.03401367 6.77979492 0.04239258 7.70483398 0.05102539 C8.6065332 0.05553711 9.50823242 0.06004883 10.43725586 0.06469727 C12.67234712 0.07652315 14.90730835 0.09300319 17.14233398 0.11352539 C17.14233398 0.77352539 17.14233398 1.43352539 17.14233398 2.11352539 C11.20233398 2.11352539 5.26233398 2.11352539 -0.85766602 2.11352539 C-0.85766602 26.53352539 -0.85766602 50.95352539 -0.85766602 76.11352539 C-1.18766602 76.11352539 -1.51766602 76.11352539 -1.85766602 76.11352539 C-2.01125102 66.35209472 -2.15943276 56.59059864 -2.30062962 46.82898045 C-2.36635774 42.29674843 -2.43397884 37.76456082 -2.50585938 33.23242188 C-2.57510086 28.8623558 -2.63945711 24.49224309 -2.70036125 20.12205315 C-2.72452092 18.45099187 -2.75047006 16.77995551 -2.77820015 15.10894966 C-2.81660548 12.77661161 -2.8487669 10.44426768 -2.87939453 8.11181641 C-2.89234055 7.41410629 -2.90528656 6.71639618 -2.91862488 5.99754333 C-2.9367461 4.3695114 -2.90279714 2.74103255 -2.85766602 1.11352539 C-1.85766602 0.11352539 -1.85766602 0.11352539 0 0 Z " fill="#222222" transform="translate(501.857666015625,487.886474609375)"/>
<path d="M0 0 C2.7735893 -0.1953745 5.30788515 -0.20701158 8.0703125 -0.07421875 C8.86654022 -0.04777786 9.66276794 -0.02133698 10.48312378 0.00590515 C13.03116632 0.09381554 15.57780663 0.20290977 18.125 0.3125 C19.85020985 0.37574368 21.57547078 0.43761024 23.30078125 0.49804688 C27.53461272 0.64937943 31.76730642 0.81971744 36 1 C36 1.99 36 2.98 36 4 C23.46 3.67 10.92 3.34 -2 3 C-1.34 2.01 -0.68 1.02 0 0 Z " fill="#020202" transform="translate(716,403)"/>
<path d="M0 0 C11.55 0 23.1 0 35 0 C34.34 1.32 33.68 2.64 33 4 C32.505 3.01 32.505 3.01 32 2 C21.77 2 11.54 2 1 2 C0.67 1.34 0.34 0.68 0 0 Z " fill="#040404" transform="translate(609,643)"/>
<path d="M0 0 C9.9 0 19.8 0 30 0 C30.33 0.99 30.66 1.98 31 3 C20.44 3 9.88 3 -1 3 C-0.67 2.01 -0.34 1.02 0 0 Z " fill="#353535" transform="translate(890,372)"/>
<path d="M0 0 C12.21 0 24.42 0 37 0 C35.04783565 3.90432869 33.12613393 6.03839944 30 9 C29.67 8.01 29.34 7.02 29 6 C29.99 5.01 30.98 4.02 32 3 C30.35 3 28.7 3 27 3 C27 2.67 27 2.34 27 2 C18.09 1.67 9.18 1.34 0 1 C0 0.67 0 0.34 0 0 Z " fill="#131313" transform="translate(767,361)"/>
<path d="M0 0 C0.33 0.99 0.66 1.98 1 3 C-1.1662868 5.1662868 -5.93884217 4.23161742 -8.9375 4.25 C-9.77474609 4.270625 -10.61199219 4.29125 -11.47460938 4.3125 C-12.27576172 4.31765625 -13.07691406 4.3228125 -13.90234375 4.328125 C-15.00823853 4.34214355 -15.00823853 4.34214355 -16.13647461 4.35644531 C-16.75143799 4.23881836 -17.36640137 4.12119141 -18 4 C-18.66 3.01 -19.32 2.02 -20 1 C-10.1 0.505 -10.1 0.505 0 0 Z " fill="#161616" transform="translate(594,701)"/>
<path d="M0 0 C0.99 0 1.98 0 3 0 C2.51358785 6.84817102 1.64006048 13.33042073 0 20 C-0.66 20 -1.32 20 -2 20 C-1.91621094 19.24074219 -1.83242188 18.48148438 -1.74609375 17.69921875 C-1.64425781 16.70535156 -1.54242188 15.71148438 -1.4375 14.6875 C-1.33308594 13.70136719 -1.22867187 12.71523438 -1.12109375 11.69921875 C-0.83397473 8.90069653 -0.83397473 8.90069653 -2 6 C-1.0625 2.8125 -1.0625 2.8125 0 0 Z " fill="#161616" transform="translate(444,521)"/>
<path d="M0 0 C12.21 0 24.42 0 37 0 C35.68 1.65 34.36 3.3 33 5 C32.34 4.34 31.68 3.68 31 3 C31.33 2.67 31.66 2.34 32 2 C21.44 1.67 10.88 1.34 0 1 C0 0.67 0 0.34 0 0 Z " fill="#1A1A1A" transform="translate(693,361)"/>
<path d="M0 0 C7.34164374 0.59288188 14.67386859 1.238212 22 2 C22 2.33 22 2.66 22 3 C16.44912173 3.71305749 11.51822305 4.2541416 6 3 C4 2.66666667 2 2.33333333 0 2 C0 1.34 0 0.68 0 0 Z " fill="#1B1B1B" transform="translate(237,689)"/>
<path d="M0 0 C0.66 0 1.32 0 2 0 C2.50604924 2.39469729 3.00499517 4.79051717 3.5 7.1875 C3.64308594 7.86103516 3.78617187 8.53457031 3.93359375 9.22851562 C4.68069842 12.87509793 5.17352282 16.27648957 5 20 C4.34 20 3.68 20 3 20 C2.49395076 17.60530271 1.99500483 15.20948283 1.5 12.8125 C1.28537109 11.80219727 1.28537109 11.80219727 1.06640625 10.77148438 C0.31930158 7.12490207 -0.17352282 3.72351043 0 0 Z " fill="#242424" transform="translate(443,414)"/>
<path d="M0 0 C5.77048378 0.62950732 10.64548432 3.18032288 15.4375 6.375 C12.35294503 7.91727748 10.33176411 6.55318414 7.125 5.5 C3.23978254 4.23298496 -0.53537766 3.0852242 -4.5625 2.375 C-2.5625 0.375 -2.5625 0.375 0 0 Z " fill="#151515" transform="translate(300.5625,337.625)"/>
<path d="M0 0 C2 1 2 1 5 4 C2.03 5.32 -0.94 6.64 -4 8 C-4.33 6.35 -4.66 4.7 -5 3 C-4.360625 2.690625 -3.72125 2.38125 -3.0625 2.0625 C-1.06389179 1.1654837 -1.06389179 1.1654837 0 0 Z " fill="#141414" transform="translate(191,273)"/>
<path d="M0 0 C1.485 0.99 1.485 0.99 3 2 C3.38411275 4.609621 3.60293197 7.0058074 3.6875 9.625 C3.72166016 10.33140625 3.75582031 11.0378125 3.79101562 11.765625 C3.87351308 13.50985688 3.93843335 15.25490395 4 17 C3.67 16.34 3.34 15.68 3 15 C2.34 15 1.68 15 1 15 C1.03255208 12.94921875 1.06510417 10.8984375 1.09765625 8.84765625 C1.20561184 6.98267859 1.20561184 6.98267859 0 6 C-0.04080783 4.00041636 -0.04254356 1.99954746 0 0 Z " fill="#161616" transform="translate(82,504)"/>
<path d="M0 0 C4.93876484 0.45941998 7.28996637 1.77812869 11 5 C12.31138904 5.70885894 13.63777017 6.39456452 15 7 C14.67 7.66 14.34 8.32 14 9 C11.85035318 7.88182488 9.70542434 6.75592552 7.5625 5.625 C6.95083984 5.30789063 6.33917969 4.99078125 5.70898438 4.6640625 C1.11328125 2.2265625 1.11328125 2.2265625 0 0 Z " fill="#161616" transform="translate(189,643)"/>
<path d="M0 0 C1.32 0 2.64 0 4 0 C4 0.99 4 1.98 4 3 C4.99 2.67 5.98 2.34 7 2 C7 2.99 7 3.98 7 5 C7.66 5 8.32 5 9 5 C9 5.66 9 6.32 9 7 C10.32 7 11.64 7 13 7 C12.67 7.66 12.34 8.32 12 9 C8.61638481 8.38271885 6.47997439 7.13020282 3.75 5.0625 C3.04359375 4.53785156 2.3371875 4.01320313 1.609375 3.47265625 C1.07828125 2.98667969 0.5471875 2.50070312 0 2 C0 1.34 0 0.68 0 0 Z " fill="#151515" transform="translate(168,628)"/>
<path d="M0 0 C6.70518586 -0.19818283 12.65176798 -0.30844801 19 2 C19.33 3.32 19.66 4.64 20 6 C16.7 5.01 13.4 4.02 10 3 C10 2.67 10 2.34 10 2 C6.7 1.67 3.4 1.34 0 1 C0 0.67 0 0.34 0 0 Z " fill="#1B1C1C" transform="translate(575,485)"/>
<path d="M0 0 C0.70640625 0.05220703 1.4128125 0.10441406 2.140625 0.15820312 C3.88579987 0.28791207 5.63045725 0.42454954 7.375 0.5625 C7.375 0.8925 7.375 1.2225 7.375 1.5625 C2.095 1.5625 -3.185 1.5625 -8.625 1.5625 C-8.625 3.8725 -8.625 6.1825 -8.625 8.5625 C-9.615 7.9025 -10.605 7.2425 -11.625 6.5625 C-11.02316251 4.54204558 -10.35193904 2.54138961 -9.625 0.5625 C-6.5270403 -0.98647985 -3.36283448 -0.26989539 0 0 Z " fill="#010101" transform="translate(557.625,345.4375)"/>
<path d="M0 0 C7.26153846 -0.61538462 7.26153846 -0.61538462 11 2.5 C11.66 3.325 12.32 4.15 13 5 C12.01 5.33 11.02 5.66 10 6 C9.34 4.68 8.68 3.36 8 2 C7.13375 2.2784375 7.13375 2.2784375 6.25 2.5625 C3.79307475 3.04023546 2.35602466 2.75729364 0 2 C0 1.34 0 0.68 0 0 Z " fill="#151515" transform="translate(529,504)"/>
<path d="M0 0 C0.17835515 4.54805635 -0.00214565 7.8794254 -2 12 C-2.66 12 -3.32 12 -4 12 C-3.88648483 10.18674449 -3.75887039 8.37436643 -3.625 6.5625 C-3.55539063 5.55316406 -3.48578125 4.54382813 -3.4140625 3.50390625 C-3.27742188 2.67761719 -3.14078125 1.85132813 -3 1 C-1 0 -1 0 0 0 Z " fill="#171717" transform="translate(115,430)"/>
<path d="M0 0 C0 3 0 3 0 3 Z M-3 4 C-2.34 4.66 -1.68 5.32 -1 6 C-1.99 6.495 -1.99 6.495 -3 7 C-4.12224855 8.88013106 -4.12224855 8.88013106 -5.125 11.0625 C-5.65480469 12.16271484 -5.65480469 12.16271484 -6.1953125 13.28515625 C-6.59363281 14.13400391 -6.59363281 14.13400391 -7 15 C-7.99 14.01 -8.98 13.02 -10 12 C-7.69 9.36 -5.38 6.72 -3 4 Z " fill="#141414" transform="translate(742,371)"/>
<path d="M0 0 C0.66 0.33 1.32 0.66 2 1 C-0.64 3.97 -3.28 6.94 -6 10 C-6.66 9.34 -7.32 8.68 -8 8 C-8 7.01 -8 6.02 -8 5 C-7.236875 4.731875 -6.47375 4.46375 -5.6875 4.1875 C-3.12619116 3.05575888 -1.80307062 2.08776599 0 0 Z " fill="#1B1B1B" transform="translate(304,438)"/>
<path d="M0 0 C4.62 0.66 9.24 1.32 14 2 C14 2.66 14 3.32 14 4 C4.41885965 4.56359649 4.41885965 4.56359649 0 1 C0 0.67 0 0.34 0 0 Z " fill="#151515" transform="translate(897,404)"/>
<path d="M0 0 C5.15171623 -0.09038099 9.91913204 0.15318867 15 1 C15.33 1.99 15.66 2.98 16 4 C10.63486869 3.152874 5.3212615 2.08318169 0 1 C0 0.67 0 0.34 0 0 Z " fill="#1B1B1B" transform="translate(329,263)"/>
<path d="M0 0 C0.99 0 1.98 0 3 0 C3 3.63 3 7.26 3 11 C2.01 11 1.02 11 0 11 C0 7.37 0 3.74 0 0 Z " fill="#1E1E1E" transform="translate(447,493)"/>
<path d="M0 0 C1 3 1 3 -0.25 6.0625 C-2 9 -2 9 -5 11 C-5 7.58678765 -4.33132534 6.60527115 -2.5 3.8125 C-2.0359375 3.09707031 -1.571875 2.38164063 -1.09375 1.64453125 C-0.7328125 1.10183594 -0.371875 0.55914063 0 0 Z M-8 10 C-7.34 10.33 -6.68 10.66 -6 11 C-6.99 11 -7.98 11 -9 11 C-8.67 10.67 -8.34 10.34 -8 10 Z " fill="#171717" transform="translate(304,603)"/>
<path d="M0 0 C2.45823172 3.68734758 3.01242616 6.69699971 4 11 C3.34 11 2.68 11 2 11 C-0.30694043 7.53958935 -0.62056512 5.09789669 -1 1 C-0.67 0.67 -0.34 0.34 0 0 Z " fill="#1D1D1D" transform="translate(500,644)"/>
<path d="M0 0 C1.85625 0.5878125 1.85625 0.5878125 3.75 1.1875 C2.76 2.6725 2.76 2.6725 1.75 4.1875 C-6 3.3125 -6 3.3125 -8.25 2.1875 C-5.45467546 -0.84076825 -3.81391921 -0.98052888 0 0 Z " fill="#1C1C1C" transform="translate(575.25,504.8125)"/>
<path d="M0 0 C0.66 0.33 1.32 0.66 2 1 C1.67 3.31 1.34 5.62 1 8 C0.34 8 -0.32 8 -1 8 C-1.33 8.99 -1.66 9.98 -2 11 C-3 9 -3 9 -2.44140625 6.8359375 C-2.15136719 6.02382813 -1.86132812 5.21171875 -1.5625 4.375 C-1.27503906 3.55773437 -0.98757812 2.74046875 -0.69140625 1.8984375 C-0.46324219 1.27195312 -0.23507813 0.64546875 0 0 Z " fill="#1C1C1C" transform="translate(118,407)"/>
<path d="M0 0 C4.43090471 1.20842856 6.98112756 2.51668565 10 6 C9.34 6.66 8.68 7.32 8 8 C6.66372225 6.85760183 5.33104612 5.71098945 4 4.5625 C3.2575 3.92441406 2.515 3.28632813 1.75 2.62890625 C1.1725 2.09136719 0.595 1.55382812 0 1 C0 0.67 0 0.34 0 0 Z " fill="#171717" transform="translate(402,297)"/>
<path d="M0 0 C0.53625 0.2475 1.0725 0.495 1.625 0.75 C-0.93491624 2.76136276 -3.42090299 4.37845496 -6.375 5.75 C-7.035 5.09 -7.695 4.43 -8.375 3.75 C-2.95961538 -0.31153846 -2.95961538 -0.31153846 0 0 Z " fill="#141414" transform="translate(184.375,280.25)"/>
<path d="M0 0 C0.66 0 1.32 0 2 0 C2.69289369 3.72430357 3.11144596 7.21083746 3 11 C0.81024227 7.71536341 0.00193437 4.79303725 -1 1 C-0.67 0.67 -0.34 0.34 0 0 Z " fill="#151515" transform="translate(357,381)"/>
<path d="M0 0 C4.21912747 0.4794463 6.79663178 1.16625119 10 4 C6.05272412 4.17942163 3.4019487 4.09350689 0 2 C0 1.34 0 0.68 0 0 Z " fill="#141414" transform="translate(289,389)"/>
<path d="M0 0 C0.33 1.32 0.66 2.64 1 4 C-1.97 6.475 -1.97 6.475 -5 9 C-5.66 8.67 -6.32 8.34 -7 8 C-4.69 5.36 -2.38 2.72 0 0 Z " fill="#070707" transform="translate(751,361)"/>
<path d="M0 0 C3.375 -0.1875 3.375 -0.1875 7 0 C7.66 0.99 8.32 1.98 9 3 C6.03 3 3.06 3 0 3 C0 2.01 0 1.02 0 0 Z " fill="#171717" transform="translate(262,664)"/>
<path d="M0 0 C0.99 1.32 1.98 2.64 3 4 C2.01 4.495 2.01 4.495 1 5 C0.67 5.99 0.34 6.98 0 8 C-0.66 7.67 -1.32 7.34 -2 7 C-1.34 4.69 -0.68 2.38 0 0 Z " fill="#161616" transform="translate(250,410)"/>
<path d="M0 0 C2.8125 -0.1875 2.8125 -0.1875 6 0 C6.99 0.99 7.98 1.98 9 3 C6.03 2.67 3.06 2.34 0 2 C0 1.34 0 0.68 0 0 Z " fill="#2C2C2C" transform="translate(245,663)"/>
<path d="M0 0 C0.66 0 1.32 0 2 0 C2.33 2.64 2.66 5.28 3 8 C2.34 8 1.68 8 1 8 C0.67 5.36 0.34 2.72 0 0 Z " fill="#1E1E1E" transform="translate(443,414)"/>
<path d="M0 0 C0.33 0 0.66 0 1 0 C1 2.64 1 5.28 1 8 C0.34 8 -0.32 8 -1 8 C-1.625 5.6875 -1.625 5.6875 -2 3 C-1.34 2.01 -0.68 1.02 0 0 Z " fill="#181818" transform="translate(627,413)"/>
</svg>
