<?xml version="1.0" encoding="iso-8859-1"?>
<!-- Uploaded to: SVG Repo, www.svgrepo.com, Generator: SVG Repo Mixer Tools -->
<svg fill="#000000" height="800px" width="800px" version="1.1" id="Layer_1" xmlns="http://www.w3.org/2000/svg" xmlns:xlink="http://www.w3.org/1999/xlink" 
	 viewBox="0 0 512 512" xml:space="preserve">
<g>
	<g>
		<path d="M460.202,51.801c-69.074-69.062-181.457-69.062-250.519,0c-61.389,61.387-69.016,157.919-19.168,227.854l-40.02,40.03
			l-7.666-7.666c-3.659-3.659-9.592-3.659-13.25,0L14.617,426.981c-2.903,2.903-5.445,6.158-7.563,9.688
			c-11.711,19.587-8.602,44.555,7.563,60.719c9.616,9.616,22.354,14.607,35.216,14.607c8.74,0,17.539-2.306,25.451-7.032
			c3.516-2.078,6.792-4.626,9.741-7.575l58.655-58.655c3.659-3.659,3.659-9.592,0-13.25c-3.659-3.659-9.592-3.659-13.25,0
			l-58.655,58.655c-0.129,0.129-0.265,0.246-0.395,0.371l-43.882-43.882c0.126-0.13,0.244-0.267,0.371-0.395l108.336-108.336
			l43.906,43.906l-29.694,29.692c-3.659,3.659-3.659,9.592,0,13.25c3.659,3.659,9.592,3.659,13.25,0l36.318-36.317
			c1.758-1.758,2.745-4.14,2.745-6.625c0-2.485-0.987-4.869-2.745-6.625l-7.655-7.655l40.025-40.035
			c30.76,21.924,66.661,32.734,102.464,32.733c45.582-0.003,90.999-17.519,125.386-51.899
			C529.265,233.247,529.265,120.864,460.202,51.801z M53.398,493.033c-9.192,1.069-18.645-2.009-25.531-8.895
			c-6.895-6.896-9.979-16.356-8.911-25.548L53.398,493.033z M179.077,348.27l-15.333-15.333l38.506-38.516
			c2.39,2.7,4.872,5.341,7.431,7.899c2.561,2.561,5.203,5.045,7.903,7.433L179.077,348.27z M446.953,289.07
			c-56.688,56.676-146.865,62.109-209.778,12.628c-4.932-3.86-9.723-8.109-14.241-12.628c-4.518-4.518-8.766-9.309-12.627-14.241
			c-0.004-0.005-0.009-0.011-0.014-0.018c-49.474-62.902-44.039-153.079,12.641-209.759c30.878-30.878,71.441-46.317,112.004-46.317
			s81.13,15.439,112.014,46.317C508.709,126.809,508.708,227.303,446.953,289.07z"/>
	</g>
</g>
<g>
	<g>
		<path d="M423.768,88.234c-3.659-3.659-9.592-3.659-13.25,0c-3.659,3.659-3.659,9.592,0,13.25
			c20.188,20.186,31.304,47.027,31.304,75.576s-11.116,55.388-31.304,75.576c-41.672,41.672-109.478,41.673-151.152,0
			c-20.188-20.188-31.305-47.028-31.305-75.576s11.118-55.388,31.305-75.576c34.656-34.656,88.216-41.356,130.253-16.292
			c4.446,2.651,10.197,1.196,12.847-3.249c2.65-4.445,1.196-10.197-3.249-12.847c-49.413-29.463-112.37-21.592-153.101,19.137
			c-23.727,23.726-36.793,55.272-36.793,88.826c0,33.554,13.067,65.1,36.793,88.827c24.49,24.49,56.659,36.735,88.827,36.735
			c32.169,0,64.337-12.245,88.826-36.735c23.727-23.727,36.793-55.272,36.793-88.827S447.495,111.96,423.768,88.234z"/>
	</g>
</g>
</svg>